<?xml version="1.0" encoding="UTF-8"?>
<!DOCTYPE svg PUBLIC "-//W3C//DTD SVG 1.1//EN" "http://www.w3.org/Graphics/SVG/1.1/DTD/svg11.dtd">
<svg xmlns="http://www.w3.org/2000/svg" version="1.1" width="921px" height="842px" style="shape-rendering:geometricPrecision; text-rendering:geometricPrecision; image-rendering:optimizeQuality; fill-rule:evenodd; clip-rule:evenodd" xmlns:xlink="http://www.w3.org/1999/xlink">
<g><path style="opacity:1" fill="#181818" d="M 553.5,-0.5 C 567.833,-0.5 582.167,-0.5 596.5,-0.5C 627.449,1.05843 657.449,7.55843 686.5,19C 694.513,22.6708 702.18,26.8375 709.5,31.5C 710.035,33.4456 711.368,34.4456 713.5,34.5C 722.374,39.7028 730.041,46.3695 736.5,54.5C 736.738,56.4044 737.738,57.7377 739.5,58.5C 740.5,58.8333 741.167,59.5 741.5,60.5C 741.427,62.0269 742.094,63.0269 743.5,63.5C 743.738,65.4044 744.738,66.7377 746.5,67.5C 746.427,69.0269 747.094,70.0269 748.5,70.5C 749.338,70.8417 749.672,71.5084 749.5,72.5C 749.427,74.0269 750.094,75.0269 751.5,75.5C 756.176,82.525 759.509,90.1916 761.5,98.5C 761.41,101.152 762.076,103.485 763.5,105.5C 765.951,112.508 767.451,119.841 768,127.5C 770.113,162.602 764.113,196.268 750,228.5C 726.131,280.387 692.964,325.554 650.5,364C 583.385,423.072 506.385,464.739 419.5,489C 400.153,546.878 375.486,602.378 345.5,655.5C 345.833,655.833 346.167,656.167 346.5,656.5C 348.075,655.544 349.742,654.877 351.5,654.5C 353.027,654.573 354.027,653.906 354.5,652.5C 364.621,647.01 375.288,642.677 386.5,639.5C 390.162,639.277 393.495,638.277 396.5,636.5C 429.059,627.163 461.725,627.329 494.5,637C 510.207,641.68 525.541,647.347 540.5,654C 571.161,669.107 602.161,683.441 633.5,697C 697.212,722.978 762.546,727.811 829.5,711.5C 833.708,711.323 837.374,709.99 840.5,707.5C 845.594,705.454 850.594,703.121 855.5,700.5C 860.342,706.205 864.675,712.205 868.5,718.5C 868.738,720.404 869.738,721.738 871.5,722.5C 871.738,724.404 872.738,725.738 874.5,726.5C 881.896,734.957 888.562,743.957 894.5,753.5C 894.738,755.404 895.738,756.738 897.5,757.5C 897.738,759.404 898.738,760.738 900.5,761.5C 900.738,763.404 901.738,764.738 903.5,765.5C 903.427,767.027 904.094,768.027 905.5,768.5C 909.984,773.467 913.984,778.8 917.5,784.5C 917.833,785.833 918.167,787.167 918.5,788.5C 866.096,823.301 808.429,840.968 745.5,841.5C 744.167,841.5 742.833,841.5 741.5,841.5C 692.07,840.892 645.737,828.559 602.5,804.5C 602.027,803.094 601.027,802.427 599.5,802.5C 597.847,802.34 596.514,801.674 595.5,800.5C 595.027,799.094 594.027,798.427 592.5,798.5C 591.508,798.672 590.842,798.338 590.5,797.5C 590.027,796.094 589.027,795.427 587.5,795.5C 587.027,794.094 586.027,793.427 584.5,793.5C 583.508,793.672 582.842,793.338 582.5,792.5C 582.027,791.094 581.027,790.427 579.5,790.5C 579.027,789.094 578.027,788.427 576.5,788.5C 576.027,787.094 575.027,786.427 573.5,786.5C 573.027,785.094 572.027,784.427 570.5,784.5C 569.738,782.738 568.404,781.738 566.5,781.5C 566.027,780.094 565.027,779.427 563.5,779.5C 556.262,775.262 549.596,770.262 543.5,764.5C 543.027,763.094 542.027,762.427 540.5,762.5C 538.091,761.299 536.091,759.633 534.5,757.5C 534.027,756.094 533.027,755.427 531.5,755.5C 530.5,755.167 529.833,754.5 529.5,753.5C 529.027,752.094 528.027,751.427 526.5,751.5C 525.5,751.167 524.833,750.5 524.5,749.5C 524.027,748.094 523.027,747.427 521.5,747.5C 519.091,746.299 517.091,744.633 515.5,742.5C 515.027,741.094 514.027,740.427 512.5,740.5C 511.5,740.167 510.833,739.5 510.5,738.5C 510.027,737.094 509.027,736.427 507.5,736.5C 505.091,735.299 503.091,733.633 501.5,731.5C 500.738,729.738 499.404,728.738 497.5,728.5C 496.738,726.738 495.404,725.738 493.5,725.5C 492.738,723.738 491.404,722.738 489.5,722.5C 487.596,722.262 486.262,721.262 485.5,719.5C 485.027,718.094 484.027,717.427 482.5,717.5C 482.027,716.094 481.027,715.427 479.5,715.5C 479.027,714.094 478.027,713.427 476.5,713.5C 476.027,712.094 475.027,711.427 473.5,711.5C 473.027,710.094 472.027,709.427 470.5,709.5C 469.508,709.672 468.842,709.338 468.5,708.5C 468.027,707.094 467.027,706.427 465.5,706.5C 457.188,702.678 448.855,698.845 440.5,695C 411.467,684.488 382.8,685.488 354.5,698C 320.248,714.584 289.582,736.25 262.5,763C 209.852,810.212 148.185,829.545 77.5,821C 62.2997,819.567 47.2997,817.067 32.5,813.5C 30.5615,811.837 28.2282,811.171 25.5,811.5C 23.8561,811.714 22.3561,811.38 21,810.5C 14.1776,779.887 7.67763,749.221 1.5,718.5C 1.15684,716.517 1.82351,715.183 3.5,714.5C 4.14987,714.196 4.81654,713.863 5.5,713.5C 47.8791,727.834 90.8791,730.168 134.5,720.5C 137.152,720.59 139.485,719.924 141.5,718.5C 142.93,717.463 144.597,716.796 146.5,716.5C 149.716,716.655 152.383,715.655 154.5,713.5C 161.765,710.204 169.098,706.871 176.5,703.5C 178.027,703.573 179.027,702.906 179.5,701.5C 184.797,698.181 190.131,694.847 195.5,691.5C 197.027,691.573 198.027,690.906 198.5,689.5C 200.027,689.573 201.027,688.906 201.5,687.5C 204.19,684.815 207.19,682.482 210.5,680.5C 212.749,679.92 214.415,678.587 215.5,676.5C 216.167,675.167 217.167,674.167 218.5,673.5C 222.5,671.5 225.5,668.5 227.5,664.5C 229.5,661.833 231.833,659.5 234.5,657.5C 236.587,656.415 237.92,654.749 238.5,652.5C 239.167,651.167 240.167,650.167 241.5,649.5C 242.906,649.027 243.573,648.027 243.5,646.5C 243.833,645.5 244.5,644.833 245.5,644.5C 246.906,644.027 247.573,643.027 247.5,641.5C 249.817,637.854 252.484,634.52 255.5,631.5C 256.906,631.027 257.573,630.027 257.5,628.5C 259.262,627.738 260.262,626.404 260.5,624.5C 261.906,624.027 262.573,623.027 262.5,621.5C 263.906,621.027 264.573,620.027 264.5,618.5C 265.906,618.027 266.573,617.027 266.5,615.5C 267.906,615.027 268.573,614.027 268.5,612.5C 269.906,612.027 270.573,611.027 270.5,609.5C 270.328,608.508 270.662,607.842 271.5,607.5C 272.906,607.027 273.573,606.027 273.5,604.5C 275.332,600.164 277.665,596.164 280.5,592.5C 281.906,592.027 282.573,591.027 282.5,589.5C 282.992,587.181 283.992,585.181 285.5,583.5C 286.906,583.027 287.573,582.027 287.5,580.5C 304.427,546.981 319.427,512.648 332.5,477.5C 334.213,476.365 334.88,474.698 334.5,472.5C 336.304,466.421 338.304,460.421 340.5,454.5C 342.213,453.365 342.88,451.698 342.5,449.5C 342.5,449.167 342.5,448.833 342.5,448.5C 344.213,447.365 344.88,445.698 344.5,443.5C 347.129,433.948 350.129,424.615 353.5,415.5C 355.277,412.495 356.277,409.162 356.5,405.5C 357.924,403.485 358.59,401.152 358.5,398.5C 359.924,396.485 360.59,394.152 360.5,391.5C 361.924,389.485 362.59,387.152 362.5,384.5C 363.924,382.485 364.59,380.152 364.5,377.5C 364.565,374.572 365.232,371.905 366.5,369.5C 367.924,367.485 368.59,365.152 368.5,362.5C 392.769,264.322 412.602,165.322 428,65.5C 342.706,90.8901 265.539,131.057 196.5,186C 173.161,206.002 152.661,228.502 135,253.5C 116.139,281.065 105.973,311.565 104.5,345C 104.289,357.99 107.289,370.157 113.5,381.5C 113.427,383.027 114.094,384.027 115.5,384.5C 119.5,389.167 123.833,393.5 128.5,397.5C 129.035,399.446 130.368,400.446 132.5,400.5C 133.167,400.833 133.833,401.167 134.5,401.5C 134.821,403.048 135.821,403.715 137.5,403.5C 162.589,415.434 189.089,420.767 217,419.5C 227.842,419.329 238.676,418.996 249.5,418.5C 251.781,418.077 253.448,418.744 254.5,420.5C 230.862,459.454 206.862,498.121 182.5,536.5C 180.048,537.065 177.715,537.732 175.5,538.5C 150.576,542.176 125.576,542.343 100.5,539C 93.2241,538.18 86.2241,536.68 79.5,534.5C 77.4855,533.076 75.1522,532.41 72.5,532.5C 64.2178,530.851 56.5512,527.851 49.5,523.5C 49.0269,522.094 48.0269,521.427 46.5,521.5C 45.5084,521.672 44.8417,521.338 44.5,520.5C 44.0269,519.094 43.0269,518.427 41.5,518.5C 38.6298,517.567 36.2964,515.9 34.5,513.5C 34.0269,512.094 33.0269,511.427 31.5,511.5C 24.7497,506.086 19.0831,499.753 14.5,492.5C 14.7148,490.821 14.0481,489.821 12.5,489.5C 5.54748,477.309 1.21415,464.309 -0.5,450.5C -0.5,439.167 -0.5,427.833 -0.5,416.5C 0.99393,396.537 4.32726,376.87 9.5,357.5C 10.9238,355.485 11.5905,353.152 11.5,350.5C 12.9238,348.485 13.5905,346.152 13.5,343.5C 13.366,341.708 13.6993,340.042 14.5,338.5C 16.2132,337.365 16.8799,335.698 16.5,333.5C 16.5,333.167 16.5,332.833 16.5,332.5C 18.2132,331.365 18.8799,329.698 18.5,327.5C 24.1592,311.171 31.1592,295.505 39.5,280.5C 40.9063,280.027 41.573,279.027 41.5,277.5C 43.6643,272.5 46.331,267.833 49.5,263.5C 50.9063,263.027 51.573,262.027 51.5,260.5C 51.3284,259.508 51.6618,258.842 52.5,258.5C 53.9063,258.027 54.573,257.027 54.5,255.5C 55.9063,255.027 56.573,254.027 56.5,252.5C 57.9063,252.027 58.573,251.027 58.5,249.5C 61.3453,244.473 64.6786,239.806 68.5,235.5C 69.9063,235.027 70.573,234.027 70.5,232.5C 71.7007,230.091 73.3674,228.091 75.5,226.5C 76.9063,226.027 77.573,225.027 77.5,223.5C 77.8333,222.5 78.5,221.833 79.5,221.5C 81.2624,220.738 82.2624,219.404 82.5,217.5C 82.8333,216.5 83.5,215.833 84.5,215.5C 85.9063,215.027 86.573,214.027 86.5,212.5C 87.8333,210.5 89.5,208.833 91.5,207.5C 92.9063,207.027 93.573,206.027 93.5,204.5C 96.8333,200.5 100.5,196.833 104.5,193.5C 108.5,190.167 112.167,186.5 115.5,182.5C 116.5,180.833 117.833,179.5 119.5,178.5C 123.771,175.899 127.437,172.566 130.5,168.5C 130.5,167.833 130.833,167.5 131.5,167.5C 134.427,166.243 136.761,164.243 138.5,161.5C 141.089,160.581 143.089,158.914 144.5,156.5C 145.891,154.11 147.891,152.443 150.5,151.5C 152.749,150.92 154.415,149.587 155.5,147.5C 162.624,141.104 170.291,135.437 178.5,130.5C 180.404,130.262 181.738,129.262 182.5,127.5C 184.027,127.573 185.027,126.906 185.5,125.5C 189.148,122.34 193.148,119.673 197.5,117.5C 199.027,117.573 200.027,116.906 200.5,115.5C 202.027,115.573 203.027,114.906 203.5,113.5C 204.899,112.11 206.566,111.11 208.5,110.5C 210.027,110.573 211.027,109.906 211.5,108.5C 215.164,105.665 219.164,103.332 223.5,101.5C 225.027,101.573 226.027,100.906 226.5,99.5C 229.678,96.7417 233.345,94.7417 237.5,93.5C 239.027,93.573 240.027,92.9063 240.5,91.5C 243.515,89.3256 246.849,87.6589 250.5,86.5C 252.027,86.573 253.027,85.9063 253.5,84.5C 281.158,69.6739 309.824,57.0072 339.5,46.5C 342.716,46.6545 345.383,45.6545 347.5,43.5C 349.421,42.6373 351.421,41.9707 353.5,41.5C 356.716,41.6545 359.383,40.6545 361.5,38.5C 361.833,38.5 362.167,38.5 362.5,38.5C 368.166,37.6096 373.5,35.943 378.5,33.5C 379.209,32.596 380.209,32.2627 381.5,32.5C 385.162,32.2766 388.495,31.2766 391.5,29.5C 394.152,29.5905 396.485,28.9238 398.5,27.5C 401.152,27.5905 403.485,26.9238 405.5,25.5C 408.152,25.5905 410.485,24.9238 412.5,23.5C 458.694,10.6632 505.694,2.66316 553.5,-0.5 Z M 626.5,53.5 C 629.505,55.2766 632.838,56.2766 636.5,56.5C 643.765,59.7958 651.098,63.1291 658.5,66.5C 658.973,67.9063 659.973,68.573 661.5,68.5C 661.842,69.3382 662.508,69.6716 663.5,69.5C 664.262,71.2624 665.596,72.2624 667.5,72.5C 668.262,74.2624 669.596,75.2624 671.5,75.5C 692.363,94.9234 701.196,118.923 698,147.5C 696.621,158.015 694.454,168.348 691.5,178.5C 690.463,179.93 689.796,181.597 689.5,183.5C 684.548,195.365 679.214,207.032 673.5,218.5C 672.094,218.973 671.427,219.973 671.5,221.5C 670.662,221.842 670.328,222.508 670.5,223.5C 669.094,223.973 668.427,224.973 668.5,226.5C 667.662,226.842 667.328,227.508 667.5,228.5C 666.094,228.973 665.427,229.973 665.5,231.5C 664.094,231.973 663.427,232.973 663.5,234.5C 662.094,234.973 661.427,235.973 661.5,237.5C 660.094,237.973 659.427,238.973 659.5,240.5C 658.094,240.973 657.427,241.973 657.5,243.5C 655.738,244.262 654.738,245.596 654.5,247.5C 652.738,248.262 651.738,249.596 651.5,251.5C 649.738,252.262 648.738,253.596 648.5,255.5C 646.367,257.091 644.701,259.091 643.5,261.5C 641.738,262.262 640.738,263.596 640.5,265.5C 639.5,265.833 638.833,266.5 638.5,267.5C 636.738,268.262 635.738,269.596 635.5,271.5C 633.5,272.833 631.833,274.5 630.5,276.5C 628.738,277.262 627.738,278.596 627.5,280.5C 623.833,283.5 620.5,286.833 617.5,290.5C 612.5,294.833 607.833,299.5 603.5,304.5C 602.5,304.833 601.833,305.5 601.5,306.5C 597.9,308.43 594.9,311.097 592.5,314.5C 591.833,314.5 591.5,314.833 591.5,315.5C 588.911,316.419 586.911,318.086 585.5,320.5C 584.833,320.5 584.5,320.833 584.5,321.5C 582.251,322.08 580.585,323.413 579.5,325.5C 577.251,326.08 575.585,327.413 574.5,329.5C 572.251,330.08 570.585,331.413 569.5,333.5C 566.467,335.016 563.8,337.016 561.5,339.5C 559.973,339.427 558.973,340.094 558.5,341.5C 556.77,342.026 555.436,343.026 554.5,344.5C 552.973,344.427 551.973,345.094 551.5,346.5C 545.205,350.141 539.205,354.141 533.5,358.5C 531.973,358.427 530.973,359.094 530.5,360.5C 520.492,366.17 510.492,371.837 500.5,377.5C 498.973,377.427 497.973,378.094 497.5,379.5C 480.798,387.123 463.964,394.457 447,401.5C 477.433,285.495 499.6,167.828 513.5,48.5C 551.452,44.5054 589.119,46.1721 626.5,53.5 Z"/></g>
<g><path style="opacity:1" fill="#6d6e6e" d="M 412.5,23.5 C 410.485,24.9238 408.152,25.5905 405.5,25.5C 407.515,24.0762 409.848,23.4095 412.5,23.5 Z"/></g>
<g><path style="opacity:1" fill="#5e5f5f" d="M 405.5,25.5 C 403.485,26.9238 401.152,27.5905 398.5,27.5C 400.515,26.0762 402.848,25.4095 405.5,25.5 Z"/></g>
<g><path style="opacity:1" fill="#5d5d5d" d="M 398.5,27.5 C 396.485,28.9238 394.152,29.5905 391.5,29.5C 393.515,28.0762 395.848,27.4095 398.5,27.5 Z"/></g>
<g><path style="opacity:1" fill="#666666" d="M 391.5,29.5 C 388.495,31.2766 385.162,32.2766 381.5,32.5C 384.505,30.7234 387.838,29.7234 391.5,29.5 Z"/></g>
<g><path style="opacity:1" fill="#8e8f8f" d="M 709.5,31.5 C 711.23,32.0256 712.564,33.0256 713.5,34.5C 711.368,34.4456 710.035,33.4456 709.5,31.5 Z"/></g>
<g><path style="opacity:1" fill="#666767" d="M 378.5,33.5 C 373.5,35.943 368.166,37.6096 362.5,38.5C 367.5,36.057 372.834,34.3904 378.5,33.5 Z"/></g>
<g><path style="opacity:1" fill="#fbfbfb" d="M 710.5,73.5 C 710.5,72.8333 710.833,72.5 711.5,72.5C 730.003,92.1513 739.003,115.651 738.5,143C 736.279,179.997 725.779,214.497 707,246.5C 669.88,307.286 621.047,356.453 560.5,394C 509.173,425.335 454.34,448.502 396,463.5C 375.476,526.417 349.143,586.751 317,644.5C 304.414,665.336 292.081,686.336 280,707.5C 263.539,720.959 247.372,734.792 231.5,749C 187.859,783.666 138.193,797.666 82.5,791C 70.3625,789.957 58.3625,788.123 46.5,785.5C 44.1137,774.902 42.1137,764.235 40.5,753.5C 133.385,766.717 209.219,737.05 268,664.5C 307.755,612.006 338.422,554.34 360,491.5C 384.68,421.128 404.68,349.462 420,276.5C 435.837,199.646 450.004,122.479 462.5,45C 462.755,43.6739 463.422,42.6739 464.5,42C 471.123,40.5083 477.79,39.3416 484.5,38.5C 472.316,134.274 455.816,229.274 435,323.5C 424.651,365.426 413.484,407.093 401.5,448.5C 506.304,420.519 594.138,365.519 665,283.5C 684.603,259.315 700.936,232.981 714,204.5C 725.362,178.329 730.029,150.996 728,122.5C 726.11,104.728 720.277,88.3946 710.5,73.5 Z"/></g>
<g><path style="opacity:1" fill="#737474" d="M 361.5,38.5 C 359.383,40.6545 356.716,41.6545 353.5,41.5C 355.936,40.129 358.603,39.129 361.5,38.5 Z"/></g>
<g><path style="opacity:1" fill="#6f6f6f" d="M 347.5,43.5 C 345.383,45.6545 342.716,46.6545 339.5,46.5C 341.936,45.129 344.603,44.129 347.5,43.5 Z"/></g>
<g><path style="opacity:1" fill="#787878" d="M 626.5,53.5 C 630.162,53.7234 633.495,54.7234 636.5,56.5C 632.838,56.2766 629.505,55.2766 626.5,53.5 Z"/></g>
<g><path style="opacity:1" fill="#979797" d="M 736.5,54.5 C 738.262,55.2623 739.262,56.5956 739.5,58.5C 737.738,57.7377 736.738,56.4044 736.5,54.5 Z"/></g>
<g><path style="opacity:1" fill="#9b9b9b" d="M 741.5,60.5 C 742.906,60.9731 743.573,61.9731 743.5,63.5C 742.094,63.0269 741.427,62.0269 741.5,60.5 Z"/></g>
<g><path style="opacity:1" fill="#868787" d="M 743.5,63.5 C 745.262,64.2623 746.262,65.5956 746.5,67.5C 744.738,66.7377 743.738,65.4044 743.5,63.5 Z"/></g>
<g><path style="opacity:1" fill="#a4a4a4" d="M 658.5,66.5 C 660.027,66.427 661.027,67.0937 661.5,68.5C 659.973,68.573 658.973,67.9063 658.5,66.5 Z"/></g>
<g><path style="opacity:1" fill="#b9b9b9" d="M 711.5,72.5 C 710.833,72.5 710.5,72.8333 710.5,73.5C 708.901,71.3962 707.068,69.3962 705,67.5C 704.333,66.8333 704.333,66.1667 705,65.5C 707.372,67.7032 709.539,70.0365 711.5,72.5 Z"/></g>
<g><path style="opacity:1" fill="#a6a7a7" d="M 746.5,67.5 C 747.906,67.9731 748.573,68.9731 748.5,70.5C 747.094,70.0269 746.427,69.0269 746.5,67.5 Z"/></g>
<g><path style="opacity:1" fill="#828383" d="M 663.5,69.5 C 665.404,69.7376 666.738,70.7376 667.5,72.5C 665.596,72.2624 664.262,71.2624 663.5,69.5 Z"/></g>
<g><path style="opacity:1" fill="#848585" d="M 667.5,72.5 C 669.404,72.7376 670.738,73.7376 671.5,75.5C 669.596,75.2624 668.262,74.2624 667.5,72.5 Z"/></g>
<g><path style="opacity:1" fill="#969696" d="M 749.5,72.5 C 750.906,72.9731 751.573,73.9731 751.5,75.5C 750.094,75.0269 749.427,74.0269 749.5,72.5 Z"/></g>
<g><path style="opacity:1" fill="#8b8b8b" d="M 253.5,84.5 C 253.027,85.9063 252.027,86.573 250.5,86.5C 250.973,85.0937 251.973,84.427 253.5,84.5 Z"/></g>
<g><path style="opacity:1" fill="#8e8f8f" d="M 240.5,91.5 C 240.027,92.9063 239.027,93.573 237.5,93.5C 237.973,92.0937 238.973,91.427 240.5,91.5 Z"/></g>
<g><path style="opacity:1" fill="#818282" d="M 226.5,99.5 C 226.027,100.906 225.027,101.573 223.5,101.5C 223.973,100.094 224.973,99.427 226.5,99.5 Z"/></g>
<g><path style="opacity:1" fill="#686969" d="M 761.5,98.5 C 762.924,100.515 763.59,102.848 763.5,105.5C 762.076,103.485 761.41,101.152 761.5,98.5 Z"/></g>
<g><path style="opacity:1" fill="#848484" d="M 211.5,108.5 C 211.027,109.906 210.027,110.573 208.5,110.5C 208.973,109.094 209.973,108.427 211.5,108.5 Z"/></g>
<g><path style="opacity:1" fill="#898989" d="M 203.5,113.5 C 203.027,114.906 202.027,115.573 200.5,115.5C 200.973,114.094 201.973,113.427 203.5,113.5 Z"/></g>
<g><path style="opacity:1" fill="#7f8080" d="M 200.5,115.5 C 200.027,116.906 199.027,117.573 197.5,117.5C 197.973,116.094 198.973,115.427 200.5,115.5 Z"/></g>
<g><path style="opacity:1" fill="#838484" d="M 185.5,125.5 C 185.027,126.906 184.027,127.573 182.5,127.5C 182.973,126.094 183.973,125.427 185.5,125.5 Z"/></g>
<g><path style="opacity:1" fill="#818282" d="M 182.5,127.5 C 181.738,129.262 180.404,130.262 178.5,130.5C 179.262,128.738 180.596,127.738 182.5,127.5 Z"/></g>
<g><path style="opacity:1" fill="#717272" d="M 155.5,147.5 C 154.415,149.587 152.749,150.92 150.5,151.5C 151.585,149.413 153.251,148.08 155.5,147.5 Z"/></g>
<g><path style="opacity:1" fill="#6c6c6c" d="M 144.5,156.5 C 143.089,158.914 141.089,160.581 138.5,161.5C 139.911,159.086 141.911,157.419 144.5,156.5 Z"/></g>
<g><path style="opacity:1" fill="#747575" d="M 138.5,161.5 C 136.761,164.243 134.427,166.243 131.5,167.5C 133.239,164.757 135.573,162.757 138.5,161.5 Z"/></g>
<g><path style="opacity:1" fill="#646565" d="M 130.5,168.5 C 127.437,172.566 123.771,175.899 119.5,178.5C 122.563,174.434 126.229,171.101 130.5,168.5 Z"/></g>
<g><path style="opacity:1" fill="#808181" d="M 691.5,178.5 C 691.88,180.698 691.213,182.365 689.5,183.5C 689.796,181.597 690.463,179.93 691.5,178.5 Z"/></g>
<g><path style="opacity:1" fill="#9d9e9e" d="M 115.5,182.5 C 112.167,186.5 108.5,190.167 104.5,193.5C 107.167,188.833 110.833,185.167 115.5,182.5 Z"/></g>
<g><path style="opacity:1" fill="#9e9e9e" d="M 93.5,204.5 C 93.573,206.027 92.9063,207.027 91.5,207.5C 91.427,205.973 92.0937,204.973 93.5,204.5 Z"/></g>
<g><path style="opacity:1" fill="#a1a2a2" d="M 86.5,212.5 C 86.573,214.027 85.9063,215.027 84.5,215.5C 84.427,213.973 85.0937,212.973 86.5,212.5 Z"/></g>
<g><path style="opacity:1" fill="#8d8d8d" d="M 82.5,217.5 C 82.2624,219.404 81.2624,220.738 79.5,221.5C 79.7376,219.596 80.7376,218.262 82.5,217.5 Z"/></g>
<g><path style="opacity:1" fill="#a1a1a1" d="M 673.5,218.5 C 673.573,220.027 672.906,221.027 671.5,221.5C 671.427,219.973 672.094,218.973 673.5,218.5 Z"/></g>
<g><path style="opacity:1" fill="#989898" d="M 77.5,223.5 C 77.573,225.027 76.9063,226.027 75.5,226.5C 75.427,224.973 76.0937,223.973 77.5,223.5 Z"/></g>
<g><path style="opacity:1" fill="#a4a4a4" d="M 670.5,223.5 C 670.573,225.027 669.906,226.027 668.5,226.5C 668.427,224.973 669.094,223.973 670.5,223.5 Z"/></g>
<g><path style="opacity:1" fill="#8f8f8f" d="M 667.5,228.5 C 667.573,230.027 666.906,231.027 665.5,231.5C 665.427,229.973 666.094,228.973 667.5,228.5 Z"/></g>
<g><path style="opacity:1" fill="#fdfdfd" d="M 120.5,219.5 C 121.525,219.897 121.692,220.563 121,221.5C 87.6976,261.407 72.3643,307.407 75,359.5C 80.7844,395.892 100.618,421.392 134.5,436C 155.646,444.596 177.646,449.43 200.5,450.5C 188.104,469.568 176.104,488.901 164.5,508.5C 143.856,510.936 123.189,511.103 102.5,509C 83.0913,506.87 65.7579,499.87 50.5,488C 37.9192,476.28 31.0859,461.78 30,444.5C 29.2633,371.376 51.2633,306.042 96,248.5C 104.175,238.802 112.341,229.136 120.5,219.5 Z"/></g>
<g><path style="opacity:1" fill="#9a9b9b" d="M 665.5,231.5 C 665.573,233.027 664.906,234.027 663.5,234.5C 663.427,232.973 664.094,231.973 665.5,231.5 Z"/></g>
<g><path style="opacity:1" fill="#a6a6a6" d="M 70.5,232.5 C 70.573,234.027 69.9063,235.027 68.5,235.5C 68.427,233.973 69.0937,232.973 70.5,232.5 Z"/></g>
<g><path style="opacity:1" fill="#9d9e9e" d="M 663.5,234.5 C 663.573,236.027 662.906,237.027 661.5,237.5C 661.427,235.973 662.094,234.973 663.5,234.5 Z"/></g>
<g><path style="opacity:1" fill="#959696" d="M 661.5,237.5 C 661.573,239.027 660.906,240.027 659.5,240.5C 659.427,238.973 660.094,237.973 661.5,237.5 Z"/></g>
<g><path style="opacity:1" fill="#878888" d="M 659.5,240.5 C 659.573,242.027 658.906,243.027 657.5,243.5C 657.427,241.973 658.094,240.973 659.5,240.5 Z"/></g>
<g><path style="opacity:1" fill="#888888" d="M 654.5,247.5 C 654.262,249.404 653.262,250.738 651.5,251.5C 651.738,249.596 652.738,248.262 654.5,247.5 Z"/></g>
<g><path style="opacity:1" fill="#9e9f9f" d="M 58.5,249.5 C 58.573,251.027 57.9063,252.027 56.5,252.5C 56.427,250.973 57.0937,249.973 58.5,249.5 Z"/></g>
<g><path style="opacity:1" fill="#858686" d="M 651.5,251.5 C 651.262,253.404 650.262,254.738 648.5,255.5C 648.738,253.596 649.738,252.262 651.5,251.5 Z"/></g>
<g><path style="opacity:1" fill="#a2a2a2" d="M 56.5,252.5 C 56.573,254.027 55.9063,255.027 54.5,255.5C 54.427,253.973 55.0937,252.973 56.5,252.5 Z"/></g>
<g><path style="opacity:1" fill="#acadad" d="M 54.5,255.5 C 54.573,257.027 53.9063,258.027 52.5,258.5C 52.427,256.973 53.0937,255.973 54.5,255.5 Z"/></g>
<g><path style="opacity:1" fill="#919191" d="M 51.5,260.5 C 51.573,262.027 50.9063,263.027 49.5,263.5C 49.427,261.973 50.0937,260.973 51.5,260.5 Z"/></g>
<g><path style="opacity:1" fill="#929393" d="M 643.5,261.5 C 643.262,263.404 642.262,264.738 640.5,265.5C 640.738,263.596 641.738,262.262 643.5,261.5 Z"/></g>
<g><path style="opacity:1" fill="#909090" d="M 638.5,267.5 C 638.262,269.404 637.262,270.738 635.5,271.5C 635.738,269.596 636.738,268.262 638.5,267.5 Z"/></g>
<g><path style="opacity:1" fill="#9b9c9c" d="M 630.5,276.5 C 630.262,278.404 629.262,279.738 627.5,280.5C 627.738,278.596 628.738,277.262 630.5,276.5 Z"/></g>
<g><path style="opacity:1" fill="#a3a3a3" d="M 41.5,277.5 C 41.573,279.027 40.9063,280.027 39.5,280.5C 39.427,278.973 40.0937,277.973 41.5,277.5 Z"/></g>
<g><path style="opacity:1" fill="#656666" d="M 617.5,290.5 C 613.833,296.167 609.167,300.833 603.5,304.5C 607.833,299.5 612.5,294.833 617.5,290.5 Z"/></g>
<g><path style="opacity:1" fill="#676767" d="M 601.5,306.5 C 599.1,309.903 596.1,312.57 592.5,314.5C 594.9,311.097 597.9,308.43 601.5,306.5 Z"/></g>
<g><path style="opacity:1" fill="#6b6c6c" d="M 591.5,315.5 C 590.089,317.914 588.089,319.581 585.5,320.5C 586.911,318.086 588.911,316.419 591.5,315.5 Z"/></g>
<g><path style="opacity:1" fill="#636363" d="M 584.5,321.5 C 583.415,323.587 581.749,324.92 579.5,325.5C 580.585,323.413 582.251,322.08 584.5,321.5 Z"/></g>
<g><path style="opacity:1" fill="#6c6d6d" d="M 579.5,325.5 C 578.415,327.587 576.749,328.92 574.5,329.5C 575.585,327.413 577.251,326.08 579.5,325.5 Z"/></g>
<g><path style="opacity:1" fill="#898989" d="M 18.5,327.5 C 18.8799,329.698 18.2132,331.365 16.5,332.5C 16.7959,330.597 17.4625,328.93 18.5,327.5 Z"/></g>
<g><path style="opacity:1" fill="#656666" d="M 574.5,329.5 C 573.415,331.587 571.749,332.92 569.5,333.5C 570.585,331.413 572.251,330.08 574.5,329.5 Z"/></g>
<g><path style="opacity:1" fill="#848585" d="M 16.5,333.5 C 16.8799,335.698 16.2132,337.365 14.5,338.5C 14.7959,336.597 15.4625,334.93 16.5,333.5 Z"/></g>
<g><path style="opacity:1" fill="#7f8080" d="M 561.5,339.5 C 561.027,340.906 560.027,341.573 558.5,341.5C 558.973,340.094 559.973,339.427 561.5,339.5 Z"/></g>
<g><path style="opacity:1" fill="#868686" d="M 554.5,344.5 C 554.027,345.906 553.027,346.573 551.5,346.5C 551.973,345.094 552.973,344.427 554.5,344.5 Z"/></g>
<g><path style="opacity:1" fill="#6d6e6e" d="M 13.5,343.5 C 13.5905,346.152 12.9238,348.485 11.5,350.5C 11.4095,347.848 12.0762,345.515 13.5,343.5 Z"/></g>
<g><path style="opacity:1" fill="#818282" d="M 11.5,350.5 C 11.5905,353.152 10.9238,355.485 9.5,357.5C 9.40953,354.848 10.0762,352.515 11.5,350.5 Z"/></g>
<g><path style="opacity:1" fill="#8b8c8c" d="M 533.5,358.5 C 533.027,359.906 532.027,360.573 530.5,360.5C 530.973,359.094 531.973,358.427 533.5,358.5 Z"/></g>
<g><path style="opacity:1" fill="#838484" d="M 368.5,362.5 C 368.59,365.152 367.924,367.485 366.5,369.5C 366.41,366.848 367.076,364.515 368.5,362.5 Z"/></g>
<g><path style="opacity:1" fill="#878787" d="M 500.5,377.5 C 500.027,378.906 499.027,379.573 497.5,379.5C 497.973,378.094 498.973,377.427 500.5,377.5 Z"/></g>
<g><path style="opacity:1" fill="#6e6f6f" d="M 364.5,377.5 C 364.59,380.152 363.924,382.485 362.5,384.5C 362.41,381.848 363.076,379.515 364.5,377.5 Z"/></g>
<g><path style="opacity:1" fill="#939494" d="M 113.5,381.5 C 114.906,381.973 115.573,382.973 115.5,384.5C 114.094,384.027 113.427,383.027 113.5,381.5 Z"/></g>
<g><path style="opacity:1" fill="#787979" d="M 362.5,384.5 C 362.59,387.152 361.924,389.485 360.5,391.5C 360.41,388.848 361.076,386.515 362.5,384.5 Z"/></g>
<g><path style="opacity:1" fill="#7a7a7a" d="M 360.5,391.5 C 360.59,394.152 359.924,396.485 358.5,398.5C 358.41,395.848 359.076,393.515 360.5,391.5 Z"/></g>
<g><path style="opacity:1" fill="#868787" d="M 128.5,397.5 C 130.23,398.026 131.564,399.026 132.5,400.5C 130.368,400.446 129.035,399.446 128.5,397.5 Z"/></g>
<g><path style="opacity:1" fill="#747575" d="M 358.5,398.5 C 358.59,401.152 357.924,403.485 356.5,405.5C 356.41,402.848 357.076,400.515 358.5,398.5 Z"/></g>
<g><path style="opacity:1" fill="#808080" d="M 134.5,401.5 C 135.71,401.932 136.71,402.599 137.5,403.5C 135.821,403.715 134.821,403.048 134.5,401.5 Z"/></g>
<g><path style="opacity:1" fill="#757676" d="M 356.5,405.5 C 356.277,409.162 355.277,412.495 353.5,415.5C 353.723,411.838 354.723,408.505 356.5,405.5 Z"/></g>
<g><path style="opacity:1" fill="#b4b5b5" d="M 249.5,418.5 C 251.628,417.371 253.961,417.204 256.5,418C 255.934,418.995 255.267,419.828 254.5,420.5C 253.448,418.744 251.781,418.077 249.5,418.5 Z"/></g>
<g><path style="opacity:1" fill="#848585" d="M 344.5,443.5 C 344.88,445.698 344.213,447.365 342.5,448.5C 342.796,446.597 343.463,444.93 344.5,443.5 Z"/></g>
<g><path style="opacity:1" fill="#848585" d="M 342.5,449.5 C 342.88,451.698 342.213,453.365 340.5,454.5C 340.796,452.597 341.463,450.93 342.5,449.5 Z"/></g>
<g><path style="opacity:1" fill="#848484" d="M 334.5,472.5 C 334.88,474.698 334.213,476.365 332.5,477.5C 332.796,475.597 333.463,473.93 334.5,472.5 Z"/></g>
<g><path style="opacity:1" fill="#808080" d="M 12.5,489.5 C 14.0481,489.821 14.7148,490.821 14.5,492.5C 13.5987,491.71 12.9321,490.71 12.5,489.5 Z"/></g>
<g><path style="opacity:1" fill="#8d8d8d" d="M 31.5,511.5 C 33.0269,511.427 34.0269,512.094 34.5,513.5C 32.9731,513.573 31.9731,512.906 31.5,511.5 Z"/></g>
<g><path style="opacity:1" fill="#8d8d8d" d="M 41.5,518.5 C 43.0269,518.427 44.0269,519.094 44.5,520.5C 42.9731,520.573 41.9731,519.906 41.5,518.5 Z"/></g>
<g><path style="opacity:1" fill="#a1a1a1" d="M 46.5,521.5 C 48.0269,521.427 49.0269,522.094 49.5,523.5C 47.9731,523.573 46.9731,522.906 46.5,521.5 Z"/></g>
<g><path style="opacity:1" fill="#6c6c6c" d="M 72.5,532.5 C 75.1522,532.41 77.4855,533.076 79.5,534.5C 76.8478,534.59 74.5145,533.924 72.5,532.5 Z"/></g>
<g><path style="opacity:1" fill="#ababab" d="M 182.5,536.5 C 180.721,538.344 178.388,539.01 175.5,538.5C 177.715,537.732 180.048,537.065 182.5,536.5 Z"/></g>
<g><path style="opacity:1" fill="#a8a9a9" d="M 287.5,580.5 C 287.573,582.027 286.906,583.027 285.5,583.5C 285.427,581.973 286.094,580.973 287.5,580.5 Z"/></g>
<g><path style="opacity:1" fill="#9d9e9e" d="M 282.5,589.5 C 282.573,591.027 281.906,592.027 280.5,592.5C 280.427,590.973 281.094,589.973 282.5,589.5 Z"/></g>
<g><path style="opacity:1" fill="#a0a0a0" d="M 273.5,604.5 C 273.573,606.027 272.906,607.027 271.5,607.5C 271.427,605.973 272.094,604.973 273.5,604.5 Z"/></g>
<g><path style="opacity:1" fill="#808181" d="M 270.5,609.5 C 270.573,611.027 269.906,612.027 268.5,612.5C 268.427,610.973 269.094,609.973 270.5,609.5 Z"/></g>
<g><path style="opacity:1" fill="#8a8b8b" d="M 268.5,612.5 C 268.573,614.027 267.906,615.027 266.5,615.5C 266.427,613.973 267.094,612.973 268.5,612.5 Z"/></g>
<g><path style="opacity:1" fill="#8f8f8f" d="M 266.5,615.5 C 266.573,617.027 265.906,618.027 264.5,618.5C 264.427,616.973 265.094,615.973 266.5,615.5 Z"/></g>
<g><path style="opacity:1" fill="#8c8d8d" d="M 264.5,618.5 C 264.573,620.027 263.906,621.027 262.5,621.5C 262.427,619.973 263.094,618.973 264.5,618.5 Z"/></g>
<g><path style="opacity:1" fill="#818181" d="M 262.5,621.5 C 262.573,623.027 261.906,624.027 260.5,624.5C 260.427,622.973 261.094,621.973 262.5,621.5 Z"/></g>
<g><path style="opacity:1" fill="#7f8080" d="M 260.5,624.5 C 260.262,626.404 259.262,627.738 257.5,628.5C 257.738,626.596 258.738,625.262 260.5,624.5 Z"/></g>
<g><path style="opacity:1" fill="#878888" d="M 257.5,628.5 C 257.573,630.027 256.906,631.027 255.5,631.5C 255.427,629.973 256.094,628.973 257.5,628.5 Z"/></g>
<g><path style="opacity:1" fill="#6c6d6d" d="M 396.5,636.5 C 393.495,638.277 390.162,639.277 386.5,639.5C 389.505,637.723 392.838,636.723 396.5,636.5 Z"/></g>
<g><path style="opacity:1" fill="#999999" d="M 247.5,641.5 C 247.573,643.027 246.906,644.027 245.5,644.5C 245.427,642.973 246.094,641.973 247.5,641.5 Z"/></g>
<g><path style="opacity:1" fill="#8f9090" d="M 243.5,646.5 C 243.573,648.027 242.906,649.027 241.5,649.5C 241.427,647.973 242.094,646.973 243.5,646.5 Z"/></g>
<g><path style="opacity:1" fill="#8c8c8c" d="M 354.5,652.5 C 354.027,653.906 353.027,654.573 351.5,654.5C 351.973,653.094 352.973,652.427 354.5,652.5 Z"/></g>
<g><path style="opacity:1" fill="#999999" d="M 238.5,652.5 C 237.92,654.749 236.587,656.415 234.5,657.5C 235.08,655.251 236.413,653.585 238.5,652.5 Z"/></g>
<g><path style="opacity:1" fill="#fdfdfd" d="M 432.5,661.5 C 454.603,659.489 476.27,662.322 497.5,670C 510.391,674.446 523.057,679.446 535.5,685C 564.578,699.247 593.912,712.913 623.5,726C 680.534,749.522 739.534,756.522 800.5,747C 815.996,744.832 831.329,742.166 846.5,739C 856.167,752 865.833,765 875.5,778C 814.715,809.707 750.715,818.373 683.5,804C 644.202,793.849 608.535,776.516 576.5,752C 547.576,727.875 517.576,705.209 486.5,684C 469.764,673.465 451.764,665.965 432.5,661.5 Z"/></g>
<g><path style="opacity:1" fill="#626363" d="M 227.5,664.5 C 225.5,668.5 222.5,671.5 218.5,673.5C 221.167,670.167 224.167,667.167 227.5,664.5 Z"/></g>
<g><path style="opacity:1" fill="#5e5f5f" d="M 215.5,676.5 C 214.415,678.587 212.749,679.92 210.5,680.5C 211.585,678.413 213.251,677.08 215.5,676.5 Z"/></g>
<g><path style="opacity:1" fill="#808181" d="M 201.5,687.5 C 201.027,688.906 200.027,689.573 198.5,689.5C 198.973,688.094 199.973,687.427 201.5,687.5 Z"/></g>
<g><path style="opacity:1" fill="#989999" d="M 198.5,689.5 C 198.027,690.906 197.027,691.573 195.5,691.5C 195.973,690.094 196.973,689.427 198.5,689.5 Z"/></g>
<g><path style="opacity:1" fill="#858585" d="M 179.5,701.5 C 179.027,702.906 178.027,703.573 176.5,703.5C 176.973,702.094 177.973,701.427 179.5,701.5 Z"/></g>
<g><path style="opacity:1" fill="#959595" d="M 465.5,706.5 C 467.027,706.427 468.027,707.094 468.5,708.5C 466.973,708.573 465.973,707.906 465.5,706.5 Z"/></g>
<g><path style="opacity:1" fill="#707171" d="M 840.5,707.5 C 837.374,709.99 833.708,711.323 829.5,711.5C 832.939,709.796 836.605,708.462 840.5,707.5 Z"/></g>
<g><path style="opacity:1" fill="#878888" d="M 470.5,709.5 C 472.027,709.427 473.027,710.094 473.5,711.5C 471.973,711.573 470.973,710.906 470.5,709.5 Z"/></g>
<g><path style="opacity:1" fill="#969797" d="M 473.5,711.5 C 475.027,711.427 476.027,712.094 476.5,713.5C 474.973,713.573 473.973,712.906 473.5,711.5 Z"/></g>
<g><path style="opacity:1" fill="#a5a5a5" d="M 3.5,714.5 C 1.82351,715.183 1.15684,716.517 1.5,718.5C 0.548855,717.081 0.215521,715.415 0.5,713.5C 1.79105,713.263 2.79105,713.596 3.5,714.5 Z"/></g>
<g><path style="opacity:1" fill="#9a9a9a" d="M 476.5,713.5 C 478.027,713.427 479.027,714.094 479.5,715.5C 477.973,715.573 476.973,714.906 476.5,713.5 Z"/></g>
<g><path style="opacity:1" fill="#727373" d="M 154.5,713.5 C 152.383,715.655 149.716,716.655 146.5,716.5C 148.936,715.129 151.603,714.129 154.5,713.5 Z"/></g>
<g><path style="opacity:1" fill="#949494" d="M 479.5,715.5 C 481.027,715.427 482.027,716.094 482.5,717.5C 480.973,717.573 479.973,716.906 479.5,715.5 Z"/></g>
<g><path style="opacity:1" fill="#838484" d="M 482.5,717.5 C 484.027,717.427 485.027,718.094 485.5,719.5C 483.973,719.573 482.973,718.906 482.5,717.5 Z"/></g>
<g><path style="opacity:1" fill="#626363" d="M 141.5,718.5 C 139.485,719.924 137.152,720.59 134.5,720.5C 136.515,719.076 138.848,718.41 141.5,718.5 Z"/></g>
<g><path style="opacity:1" fill="#838383" d="M 868.5,718.5 C 870.262,719.262 871.262,720.596 871.5,722.5C 869.738,721.738 868.738,720.404 868.5,718.5 Z"/></g>
<g><path style="opacity:1" fill="#848585" d="M 489.5,722.5 C 491.404,722.738 492.738,723.738 493.5,725.5C 491.596,725.262 490.262,724.262 489.5,722.5 Z"/></g>
<g><path style="opacity:1" fill="#878787" d="M 871.5,722.5 C 873.262,723.262 874.262,724.596 874.5,726.5C 872.738,725.738 871.738,724.404 871.5,722.5 Z"/></g>
<g><path style="opacity:1" fill="#8a8a8a" d="M 493.5,725.5 C 495.404,725.738 496.738,726.738 497.5,728.5C 495.596,728.262 494.262,727.262 493.5,725.5 Z"/></g>
<g><path style="opacity:1" fill="#888989" d="M 497.5,728.5 C 499.404,728.738 500.738,729.738 501.5,731.5C 499.596,731.262 498.262,730.262 497.5,728.5 Z"/></g>
<g><path style="opacity:1" fill="#a1a2a2" d="M 507.5,736.5 C 509.027,736.427 510.027,737.094 510.5,738.5C 508.973,738.573 507.973,737.906 507.5,736.5 Z"/></g>
<g><path style="opacity:1" fill="#a7a8a8" d="M 512.5,740.5 C 514.027,740.427 515.027,741.094 515.5,742.5C 513.973,742.573 512.973,741.906 512.5,740.5 Z"/></g>
<g><path style="opacity:1" fill="#8e8e8e" d="M 521.5,747.5 C 523.027,747.427 524.027,748.094 524.5,749.5C 522.973,749.573 521.973,748.906 521.5,747.5 Z"/></g>
<g><path style="opacity:1" fill="#949595" d="M 526.5,751.5 C 528.027,751.427 529.027,752.094 529.5,753.5C 527.973,753.573 526.973,752.906 526.5,751.5 Z"/></g>
<g><path style="opacity:1" fill="#828282" d="M 894.5,753.5 C 896.262,754.262 897.262,755.596 897.5,757.5C 895.738,756.738 894.738,755.404 894.5,753.5 Z"/></g>
<g><path style="opacity:1" fill="#a7a8a8" d="M 531.5,755.5 C 533.027,755.427 534.027,756.094 534.5,757.5C 532.973,757.573 531.973,756.906 531.5,755.5 Z"/></g>
<g><path style="opacity:1" fill="#868686" d="M 897.5,757.5 C 899.262,758.262 900.262,759.596 900.5,761.5C 898.738,760.738 897.738,759.404 897.5,757.5 Z"/></g>
<g><path style="opacity:1" fill="#8a8b8b" d="M 900.5,761.5 C 902.262,762.262 903.262,763.596 903.5,765.5C 901.738,764.738 900.738,763.404 900.5,761.5 Z"/></g>
<g><path style="opacity:1" fill="#a0a1a1" d="M 540.5,762.5 C 542.027,762.427 543.027,763.094 543.5,764.5C 541.973,764.573 540.973,763.906 540.5,762.5 Z"/></g>
<g><path style="opacity:1" fill="#808181" d="M 903.5,765.5 C 904.906,765.973 905.573,766.973 905.5,768.5C 904.094,768.027 903.427,767.027 903.5,765.5 Z"/></g>
<g><path style="opacity:1" fill="#858686" d="M 563.5,779.5 C 565.027,779.427 566.027,780.094 566.5,781.5C 564.973,781.573 563.973,780.906 563.5,779.5 Z"/></g>
<g><path style="opacity:1" fill="#848585" d="M 566.5,781.5 C 568.404,781.738 569.738,782.738 570.5,784.5C 568.596,784.262 567.262,783.262 566.5,781.5 Z"/></g>
<g><path style="opacity:1" fill="#a0a1a1" d="M 570.5,784.5 C 572.027,784.427 573.027,785.094 573.5,786.5C 571.973,786.573 570.973,785.906 570.5,784.5 Z"/></g>
<g><path style="opacity:1" fill="#989898" d="M 573.5,786.5 C 575.027,786.427 576.027,787.094 576.5,788.5C 574.973,788.573 573.973,787.906 573.5,786.5 Z"/></g>
<g><path style="opacity:1" fill="#8a8a8a" d="M 917.5,784.5 C 918.5,785.167 919.5,785.833 920.5,786.5C 920.5,787.167 920.5,787.833 920.5,788.5C 919.833,788.5 919.167,788.5 918.5,788.5C 918.167,787.167 917.833,785.833 917.5,784.5 Z"/></g>
<g><path style="opacity:1" fill="#9e9e9e" d="M 576.5,788.5 C 578.027,788.427 579.027,789.094 579.5,790.5C 577.973,790.573 576.973,789.906 576.5,788.5 Z"/></g>
<g><path style="opacity:1" fill="#a5a6a6" d="M 579.5,790.5 C 581.027,790.427 582.027,791.094 582.5,792.5C 580.973,792.573 579.973,791.906 579.5,790.5 Z"/></g>
<g><path style="opacity:1" fill="#858585" d="M 584.5,793.5 C 586.027,793.427 587.027,794.094 587.5,795.5C 585.973,795.573 584.973,794.906 584.5,793.5 Z"/></g>
<g><path style="opacity:1" fill="#a2a2a2" d="M 587.5,795.5 C 589.027,795.427 590.027,796.094 590.5,797.5C 588.973,797.573 587.973,796.906 587.5,795.5 Z"/></g>
<g><path style="opacity:1" fill="#a3a3a3" d="M 592.5,798.5 C 594.027,798.427 595.027,799.094 595.5,800.5C 593.973,800.573 592.973,799.906 592.5,798.5 Z"/></g>
<g><path style="opacity:1" fill="#a3a3a3" d="M 599.5,802.5 C 601.027,802.427 602.027,803.094 602.5,804.5C 600.973,804.573 599.973,803.906 599.5,802.5 Z"/></g>
<g><path style="opacity:1" fill="#7d7d7d" d="M 25.5,811.5 C 28.2282,811.171 30.5615,811.837 32.5,813.5C 29.9327,813.279 27.5994,812.612 25.5,811.5 Z"/></g>
</svg>
